<?xml version="1.0" encoding="UTF-8"?>
<!DOCTYPE svg PUBLIC "-//W3C//DTD SVG 1.1//EN" "http://www.w3.org/Graphics/SVG/1.1/DTD/svg11.dtd">
<svg xmlns="http://www.w3.org/2000/svg" version="1.1" width="512px" height="512px" style="shape-rendering:geometricPrecision; text-rendering:geometricPrecision; image-rendering:optimizeQuality; fill-rule:evenodd; clip-rule:evenodd" xmlns:xlink="http://www.w3.org/1999/xlink">
<g><path style="opacity:0.996" fill="#000000" d="M 511.5,232.5 C 511.5,248.167 511.5,263.833 511.5,279.5C 498.786,375.809 449.119,445.642 362.5,489C 335.858,500.741 308.191,508.241 279.5,511.5C 263.833,511.5 248.167,511.5 232.5,511.5C 143.191,500.29 76.0245,455.957 31,378.5C -4.15411,310.006 -9.15411,239.339 16,166.5C 50.1589,81.6807 111.659,28.1807 200.5,6C 290.999,-11.3784 369.666,11.2882 436.5,74C 479.649,118.135 504.649,170.969 511.5,232.5 Z"/></g>
<g><path style="opacity:1" fill="#fcfcfc" d="M 240.5,141.5 C 275.107,138.933 307.774,145.599 338.5,161.5C 339.666,175.488 339.833,189.488 339,203.5C 303.068,180.072 264.235,173.239 222.5,183C 209.107,187.98 202.94,197.48 204,211.5C 206.097,217.557 209.93,222.057 215.5,225C 239.323,232.699 263.656,238.366 288.5,242C 303.819,245.325 318.152,250.992 331.5,259C 350.29,275.051 356.456,295.217 350,319.5C 341.412,344.418 324.245,359.918 298.5,366C 250.357,375.732 204.357,369.566 160.5,347.5C 159.167,333.833 159.167,320.167 160.5,306.5C 198.983,329.289 240.316,337.456 284.5,331C 294.783,328.793 302.616,323.293 308,314.5C 312.032,303.348 309.532,294.181 300.5,287C 294.725,284.075 288.725,281.742 282.5,280C 264.671,275.501 246.671,271.834 228.5,269C 210.759,265.645 194.426,258.979 179.5,249C 161.48,231.575 156.98,211.075 166,187.5C 177.074,166.2 194.24,152.367 217.5,146C 225.244,144.151 232.911,142.651 240.5,141.5 Z"/></g>
</svg>
